<?xml version="1.0" encoding="utf-8" ?>
<svg baseProfile="tiny" height="800px" version="1.2" width="1000px" xmlns="http://www.w3.org/2000/svg" xmlns:ev="http://www.w3.org/2001/xml-events" xmlns:xlink="http://www.w3.org/1999/xlink"><defs /><rect fill="#F4F0FB" height="100%" width="100%" x="0" y="0" /><rect fill="#6C63FF" height="80px" width="100%" x="0" y="0" /><text fill="white" font-family="Arial" font-size="24px" x="30" y="50">Collaboration Platform</text><rect fill="white" height="600px" rx="15" stroke="#6C63FF" stroke-width="2px" width="460px" x="20" y="100" /><text fill="#6C63FF" font-family="Arial" font-size="20px" x="50" y="150">Your Documents</text><rect fill="#ECEBFF" height="60px" rx="10" width="400px" x="40" y="180" /><text fill="#6C63FF" font-family="Arial" font-size="16px" x="60" y="215">Document 1</text><rect fill="#ECEBFF" height="60px" rx="10" width="400px" x="40" y="260" /><text fill="#6C63FF" font-family="Arial" font-size="16px" x="60" y="295">Document 2</text><rect fill="#ECEBFF" height="60px" rx="10" width="400px" x="40" y="340" /><text fill="#6C63FF" font-family="Arial" font-size="16px" x="60" y="375">Document 3</text><rect fill="#ECEBFF" height="60px" rx="10" width="400px" x="40" y="420" /><text fill="#6C63FF" font-family="Arial" font-size="16px" x="60" y="455">Document 4</text><rect fill="#ECEBFF" height="60px" rx="10" width="400px" x="40" y="500" /><text fill="#6C63FF" font-family="Arial" font-size="16px" x="60" y="535">Document 5</text><rect fill="white" height="600px" rx="15" stroke="#6C63FF" stroke-width="2px" width="460px" x="500" y="100" /><text fill="#6C63FF" font-family="Arial" font-size="20px" x="530" y="150">Editor</text><rect fill="#ECEBFF" height="420px" rx="10" width="420px" x="520" y="180" /><text fill="#9B9B9B" font-family="Arial" font-size="16px" x="540" y="210">Type here...</text><text fill="#6C63FF" font-family="Arial" font-size="16px" x="530" y="630">Collaborators</text><circle cx="550" cy="680" fill="#6C63FF" r="20" /><text fill="white" font-family="Arial" font-size="16px" x="545" y="685">A</text><circle cx="620" cy="680" fill="#6C63FF" r="20" /><text fill="white" font-family="Arial" font-size="16px" x="615" y="685">B</text><circle cx="690" cy="680" fill="#6C63FF" r="20" /><text fill="white" font-family="Arial" font-size="16px" x="685" y="685">C</text></svg>